<svg xmlns="http://www.w3.org/2000/svg" viewBox="0 0 268.71 51.22"><defs><style>.cls-1{fill:#f37721;}.cls-2{fill:#fff;}</style></defs><title>Asset 23</title><g id="Layer_2" data-name="Layer 2"><g id="Layer_1-2" data-name="Layer 1"><rect class="cls-1" x="108.69" y="0.33" width="5.68" height="50.39"/><polygon class="cls-2" points="37.63 28.34 37.63 40.88 28.5 28.37 28.5 28.34 22.82 28.34 22.82 50.72 28.5 50.72 28.5 38.2 37.63 50.72 43.31 50.72 43.31 28.34 37.63 28.34"/><polygon class="cls-2" points="49.51 0.34 49.51 5.57 55.94 5.57 55.94 22.93 61.62 22.93 61.62 0.34 49.51 0.34"/><path class="cls-2" d="M92.39,14.7A6.13,6.13,0,1,1,87,5.6a6.16,6.16,0,0,1,5.35,3.09l5-2.74a11.88,11.88,0,0,0-22.18,5.74A11.76,11.76,0,0,0,87.06,23.38,11.9,11.9,0,0,0,97.35,17.5Z"/><circle class="cls-1" cx="67.96" cy="3.07" r="3.04"/><path class="cls-2" d="M40.94,12.05A6.93,6.93,0,0,0,39.54,11a7.26,7.26,0,0,0-.67-.38,52.22,52.22,0,0,0-6.79-2.77c-.67-.29-1.1-.74-1.1-1.25C31,5.7,31.82,5,33.8,5c1.55,0,3.34.67,3.34,2.59h5.55c0-.3,0-.59,0-.88,0-3.69-4-6.68-9-6.68-5.41,0-9,3-9,6.68a6.39,6.39,0,0,0,1.8,4.48h0c2.17,2.65,8.37,3.52,9.87,4.92a1,1,0,0,1,.39.74c0,.83-.58,1.51-3,1.51-1.59,0-3.4-.57-3.59-2.18H24.63v.51c0,3.68,4.12,6.67,9.21,6.67,6.24,0,9.2-3,9.2-6.67A6.45,6.45,0,0,0,40.94,12.05Z"/><path class="cls-2" d="M16.31,12.05A6.66,6.66,0,0,0,14.91,11a7.26,7.26,0,0,0-.67-.38A51.65,51.65,0,0,0,7.45,7.82c-.67-.29-1.09-.74-1.09-1.25C6.36,5.7,7.19,5,9.17,5c1.56,0,3.34.67,3.34,2.59h5.55c0-.3,0-.59,0-.88,0-3.69-4-6.68-9-6.68-5.41,0-9,3-9,6.68A6.4,6.4,0,0,0,2,11.18H2c2.17,2.65,8.37,3.52,9.87,4.92a1,1,0,0,1,.39.74c0,.83-.58,1.51-3,1.51-1.58,0-3.4-.57-3.59-2.18H0c0,.17,0,.34,0,.51,0,3.68,4.12,6.67,9.21,6.67,6.25,0,9.21-3,9.21-6.67A6.46,6.46,0,0,0,16.31,12.05Z"/><path class="cls-2" d="M93.43,39.91A6.66,6.66,0,0,0,92,38.83c-.21-.13-.44-.26-.67-.38a52.22,52.22,0,0,0-6.79-2.77c-.67-.28-1.1-.74-1.1-1.24,0-.88.84-1.58,2.82-1.58,1.55,0,3.34.67,3.34,2.58h5.55c0-.29,0-.59,0-.88,0-3.69-4-6.68-9-6.68-5.41,0-9,3-9,6.68A6.39,6.39,0,0,0,79.07,39h0c2.17,2.64,8.37,3.51,9.87,4.91a1,1,0,0,1,.39.75c0,.83-.58,1.5-3,1.5-1.59,0-3.4-.57-3.59-2.18H77.12v.51c0,3.69,4.12,6.68,9.21,6.68,6.24,0,9.2-3,9.2-6.68A6.45,6.45,0,0,0,93.43,39.91Z"/><path class="cls-2" d="M64.25,50.73h6.82L66.33,44a8.34,8.34,0,0,0-3.92-15.68h-11V50.72h5.69V44.81h3Zm1.13-14.15a3,3,0,0,1-3,3H57.07v-6H62.4A3,3,0,0,1,65.38,36.58Z"/><path class="cls-2" d="M122.74,5.44h.48a3.25,3.25,0,0,0,.71-1.36,8.08,8.08,0,0,0,.25-2.22V.31H128V5.44h.66V7.56h-.75V6.17h-4.46V7.56h-.74Zm4.47,0V1H125v.89a12,12,0,0,1-.06,1.27,9,9,0,0,1-.18,1,6,6,0,0,1-.25.75,3.86,3.86,0,0,1-.29.51Z"/><path class="cls-2" d="M129.65.31h3.76V1h-2.94V2.79h2.76v.7h-2.76v2h3.06v.73h-3.88Z"/><path class="cls-2" d="M134.62.31h1.79a3.33,3.33,0,0,1,.86.1,1.81,1.81,0,0,1,.66.29,1.16,1.16,0,0,1,.42.51,1.64,1.64,0,0,1,.15.73,1.64,1.64,0,0,1-.16.76,1.35,1.35,0,0,1-.44.51,2,2,0,0,1-.68.29,3.36,3.36,0,0,1-.85.1h-.93V6.17h-.82Zm1.69,2.59a3.12,3.12,0,0,0,.55,0,1.44,1.44,0,0,0,.44-.17.78.78,0,0,0,.28-.29,1,1,0,0,0,.1-.45.87.87,0,0,0-.11-.44.78.78,0,0,0-.28-.29,1.31,1.31,0,0,0-.42-.16,3.12,3.12,0,0,0-.54,0h-.89V2.9Z"/><path class="cls-2" d="M141.64,3,139,.31h1.09l2.48,2.58h0V.31h.82V2.89h0L145.85.31H147L144.28,3l2.82,3.19H146l-2.6-3h0v3h-.82v-3h0l-2.6,3h-1.12Z"/><path class="cls-2" d="M149.67.31h.74l2.52,5.86H152l-.59-1.44h-2.79L148,6.17h-.91ZM151.11,4,150,1.26,148.91,4Z"/><path class="cls-2" d="M153.68.31h2a3,3,0,0,1,.66.08,1.83,1.83,0,0,1,.59.24,1.35,1.35,0,0,1,.43.46,1.48,1.48,0,0,1,.16.7,1.25,1.25,0,0,1-.28.82,1.52,1.52,0,0,1-.75.46h0a1.74,1.74,0,0,1,.52.15,1.37,1.37,0,0,1,.42.29,1.57,1.57,0,0,1,.27.43,1.64,1.64,0,0,1,.09.56,1.54,1.54,0,0,1-.17.73,1.57,1.57,0,0,1-.47.52,2.23,2.23,0,0,1-.7.31,3.44,3.44,0,0,1-.86.1h-1.93Zm1.89,2.48a1.61,1.61,0,0,0,.44-.06,1.12,1.12,0,0,0,.37-.16,1,1,0,0,0,.25-.28.88.88,0,0,0,.09-.41.73.73,0,0,0-.35-.68,1.89,1.89,0,0,0-.93-.2h-.94V2.79Zm0,2.69a2.94,2.94,0,0,0,.51-.05,1.43,1.43,0,0,0,.48-.16,1,1,0,0,0,.34-.31.94.94,0,0,0,.12-.49.86.86,0,0,0-.35-.76,1.94,1.94,0,0,0-1-.23h-1.1v2Z"/><path class="cls-2" d="M159,.31h.82V2.76h3V.31h.82V6.17h-.82V3.49h-3V6.17H159Z"/><path class="cls-2" d="M165,.31h3.75V1h-2.93V2.79h2.76v.7h-2.76v2h3.06v.73H165Z"/><path class="cls-2" d="M172.07.31h4.58V6.17h-.82V1h-2.94V6.17h-.82Z"/><path class="cls-2" d="M178.07.31h.82V6.17h-.82Z"/><path class="cls-2" d="M179.72,5.44h.48a3.15,3.15,0,0,0,.72-1.36,8.54,8.54,0,0,0,.24-2.22V.31H185V5.44h.66V7.56h-.74V6.17h-4.46V7.56h-.75Zm4.47,0V1H182v.89a9.71,9.71,0,0,1-.07,1.27,5.88,5.88,0,0,1-.18,1,3.87,3.87,0,0,1-.25.75,3,3,0,0,1-.29.51Z"/><path class="cls-2" d="M186.63.31h4.58V6.17h-.82V1h-2.94V6.17h-.82Z"/><path class="cls-2" d="M192.63.31h1.79a3.28,3.28,0,0,1,.86.1,1.81,1.81,0,0,1,.66.29,1.25,1.25,0,0,1,.43.51,1.64,1.64,0,0,1,.15.73,1.64,1.64,0,0,1-.17.76,1.35,1.35,0,0,1-.44.51,2,2,0,0,1-.68.29,3.3,3.3,0,0,1-.85.1h-.93V6.17h-.82Zm1.69,2.59a3.12,3.12,0,0,0,.55,0,1.35,1.35,0,0,0,.44-.17.78.78,0,0,0,.28-.29,1,1,0,0,0,.1-.45.87.87,0,0,0-.11-.44.71.71,0,0,0-.28-.29,1.31,1.31,0,0,0-.42-.16,3.12,3.12,0,0,0-.54,0h-.89V2.9Z"/><path class="cls-2" d="M197.56.31h.82V5h0l3-4.64h.9V6.17h-.82V1.53h0l-2.95,4.64h-.9Z"/><path class="cls-2" d="M206.45,6.32a3.23,3.23,0,0,1-1.22-.23,2.73,2.73,0,0,1-1-.64,2.83,2.83,0,0,1-.64-1,3.15,3.15,0,0,1-.23-1.24A3.16,3.16,0,0,1,203.61,2a2.9,2.9,0,0,1,.65-1,2.78,2.78,0,0,1,1-.62,3.27,3.27,0,0,1,1.22-.23,3.39,3.39,0,0,1,.64.06,3.8,3.8,0,0,1,.6.18,2.29,2.29,0,0,1,.51.28,2,2,0,0,1,.39.38l-.6.51a1.67,1.67,0,0,0-.6-.48,2,2,0,0,0-.94-.21,2.18,2.18,0,0,0-.82.15,2.06,2.06,0,0,0-.65.41,2.13,2.13,0,0,0-.46.61,2.21,2.21,0,0,0-.23.74H207v.7h-2.74a2.52,2.52,0,0,0,.19.82,2.15,2.15,0,0,0,.45.66,2,2,0,0,0,.68.46,2.13,2.13,0,0,0,.86.16,2.2,2.2,0,0,0,.92-.19,1.72,1.72,0,0,0,.7-.59l.63.45a2.48,2.48,0,0,1-.89.76A2.93,2.93,0,0,1,206.45,6.32Z"/><path class="cls-2" d="M209.53.31h1.28l1.75,4.5h0l1.73-4.5h1.27V6.17h-.82V1.27h0l-1.95,4.9h-.52l-1.94-4.9h0v4.9h-.8Z"/><path class="cls-2" d="M219.79,6.32a3.32,3.32,0,0,1-1.23-.23,2.73,2.73,0,0,1-1-.64,2.83,2.83,0,0,1-.64-1,3.35,3.35,0,0,1-.23-1.25A3.35,3.35,0,0,1,216.94,2a2.88,2.88,0,0,1,.66-1,2.82,2.82,0,0,1,1-.62,3.34,3.34,0,0,1,1.24-.23,3.05,3.05,0,0,1,.6.06,3.66,3.66,0,0,1,.59.17,2.51,2.51,0,0,1,.51.29,1.65,1.65,0,0,1,.4.39l-.65.5a1.56,1.56,0,0,0-.6-.49,1.93,1.93,0,0,0-.85-.2,2.18,2.18,0,0,0-.93.19,1.94,1.94,0,0,0-.69.51,2,2,0,0,0-.45.75,2.44,2.44,0,0,0-.16.9,2.83,2.83,0,0,0,.15.93,2.32,2.32,0,0,0,.44.75,2.08,2.08,0,0,0,.7.5,2.24,2.24,0,0,0,.91.18,2,2,0,0,0,.91-.2,1.69,1.69,0,0,0,.67-.58l.65.45a2.71,2.71,0,0,1-.9.77A2.91,2.91,0,0,1,219.79,6.32Z"/><path class="cls-2" d="M224.1,1h-1.88V.31h4.58V1h-1.88V6.17h-.82Z"/><path class="cls-2" d="M227.57.31h2a3,3,0,0,1,.66.08,1.89,1.89,0,0,1,.6.24,1.43,1.43,0,0,1,.42.46,1.37,1.37,0,0,1,.16.7,1.2,1.2,0,0,1-.28.82,1.52,1.52,0,0,1-.75.46h0a1.81,1.81,0,0,1,.53.15,1.33,1.33,0,0,1,.41.29,1.57,1.57,0,0,1,.27.43,1.64,1.64,0,0,1,.09.56,1.43,1.43,0,0,1-.17.73,1.47,1.47,0,0,1-.47.52,2.13,2.13,0,0,1-.7.31,3.38,3.38,0,0,1-.86.1h-1.93Zm1.89,2.48a1.56,1.56,0,0,0,.44-.06,1,1,0,0,0,.37-.16.83.83,0,0,0,.25-.28.88.88,0,0,0,.09-.41.73.73,0,0,0-.35-.68,1.89,1.89,0,0,0-.93-.2h-.94V2.79Zm0,2.69a3.15,3.15,0,0,0,.52-.05,1.45,1.45,0,0,0,.47-.16,1,1,0,0,0,.34-.31.94.94,0,0,0,.13-.49.84.84,0,0,0-.36-.76,1.94,1.94,0,0,0-1-.23h-1.1v2Z"/><path class="cls-2" d="M235.68,6.32a3.28,3.28,0,0,1-1.23-.23,2.73,2.73,0,0,1-1-.64,2.72,2.72,0,0,1-.65-1,3.35,3.35,0,0,1-.23-1.25A3.35,3.35,0,0,1,232.82,2a2.72,2.72,0,0,1,.65-1,2.69,2.69,0,0,1,1-.62,3.28,3.28,0,0,1,1.23-.23,3.34,3.34,0,0,1,1.24.23,2.73,2.73,0,0,1,1,.62,2.85,2.85,0,0,1,.65,1,3.16,3.16,0,0,1,.23,1.25,3.16,3.16,0,0,1-.23,1.25,2.85,2.85,0,0,1-.65,1,2.77,2.77,0,0,1-1,.64A3.34,3.34,0,0,1,235.68,6.32Zm0-.74a2.25,2.25,0,0,0,.92-.18,2.12,2.12,0,0,0,.71-.5,2.16,2.16,0,0,0,.44-.75,2.54,2.54,0,0,0,.16-.92,2.44,2.44,0,0,0-.16-.9,2.16,2.16,0,0,0-.44-.75,2.07,2.07,0,0,0-.7-.51,2.15,2.15,0,0,0-.93-.19,2.09,2.09,0,0,0-.91.19,2,2,0,0,0-.7.51,2.32,2.32,0,0,0-.44.75,2.66,2.66,0,0,0-.16.9,2.78,2.78,0,0,0,.16.92,2.34,2.34,0,0,0,.45.75,2,2,0,0,0,.69.5A2.24,2.24,0,0,0,235.68,5.58Z"/><path class="cls-2" d="M122.74,20.18h.48a3.29,3.29,0,0,0,.71-1.37,8,8,0,0,0,.25-2.21V15.05H128v5.13h.66V22.3h-.75V20.91h-4.46V22.3h-.74Zm4.47,0V15.77H125v.88a12.23,12.23,0,0,1-.06,1.28,9.91,9.91,0,0,1-.18,1,5.78,5.78,0,0,1-.25.74,3.45,3.45,0,0,1-.29.52Z"/><path class="cls-2" d="M129.65,15.05h3.76v.72h-2.94v1.75h2.76v.71h-2.76v1.95h3.06v.73h-3.88Z"/><path class="cls-2" d="M134.62,15.05h1.79a3.85,3.85,0,0,1,.86.09,1.82,1.82,0,0,1,.66.3,1.19,1.19,0,0,1,.42.5,1.68,1.68,0,0,1,.15.74,1.6,1.6,0,0,1-.16.75,1.38,1.38,0,0,1-.44.52,2,2,0,0,1-.68.29,3.89,3.89,0,0,1-.85.09h-.93v2.58h-.82Zm1.69,2.59a2.38,2.38,0,0,0,.55-.06,1.43,1.43,0,0,0,.44-.16.78.78,0,0,0,.28-.29,1,1,0,0,0,.1-.45.84.84,0,0,0-.11-.44.78.78,0,0,0-.28-.29,1.11,1.11,0,0,0-.42-.16,3.1,3.1,0,0,0-.54,0h-.89v1.9Z"/><path class="cls-2" d="M141.64,17.71,139,15.05h1.09l2.48,2.58h0V15.05h.82v2.58h0l2.47-2.58H147l-2.67,2.66,2.82,3.2H146l-2.6-3h0v3h-.82v-3h0l-2.6,3h-1.12Z"/><path class="cls-2" d="M149.67,15.05h.74l2.52,5.86H152l-.59-1.44h-2.79L148,20.91h-.91Zm1.44,3.7L150,16l-1.11,2.75Z"/><path class="cls-2" d="M153.68,15.05h2a3,3,0,0,1,.66.07,1.84,1.84,0,0,1,.59.25,1.35,1.35,0,0,1,.43.46,1.45,1.45,0,0,1,.16.7,1.25,1.25,0,0,1-.28.82,1.44,1.44,0,0,1-.75.45v0A1.49,1.49,0,0,1,157,18a1.37,1.37,0,0,1,.42.29,1.43,1.43,0,0,1,.27.43,1.63,1.63,0,0,1,.09.55,1.56,1.56,0,0,1-.17.74,1.67,1.67,0,0,1-.47.52,2.21,2.21,0,0,1-.7.3,3.43,3.43,0,0,1-.86.11h-1.93Zm1.89,2.47a2.12,2.12,0,0,0,.44-.05,1.14,1.14,0,0,0,.37-.17.76.76,0,0,0,.25-.28.86.86,0,0,0,.09-.41.72.72,0,0,0-.35-.67,1.78,1.78,0,0,0-.93-.2h-.94v1.78Zm0,2.69a2.92,2.92,0,0,0,.51,0,1.69,1.69,0,0,0,.48-.16,1,1,0,0,0,.34-.31,1,1,0,0,0,.12-.5.84.84,0,0,0-.35-.75,1.94,1.94,0,0,0-1-.23h-1.1v2Z"/><path class="cls-2" d="M159,15.05h.82V17.5h3V15.05h.82v5.86h-.82V18.23h-3v2.68H159Z"/><path class="cls-2" d="M165,15.05h.82v4.64h0l3-4.64h.9v5.86h-.82V16.26h0l-2.95,4.65H165Z"/><path class="cls-2" d="M171.14,15.05H172v4.64h0l3-4.64h.91v5.86H175V16.26h0l-3,4.65h-.9Zm2.33-.51a1.32,1.32,0,0,1-.87-.29,1.27,1.27,0,0,1-.41-.82l.48-.09a.71.71,0,0,0,.26.48.89.89,0,0,0,.54.17.84.84,0,0,0,.53-.17.69.69,0,0,0,.27-.48l.47.09a1.22,1.22,0,0,1-.41.82A1.3,1.3,0,0,1,173.47,14.54Z"/><path class="cls-2" d="M179.33,15.05h.82V17.5h3V15.05h.82v5.86h-.82V18.23h-3v2.68h-.82Z"/><path class="cls-2" d="M187.23,15.05H188l2.51,5.86h-.93L189,19.47h-2.78l-.59,1.44h-.91Zm1.44,3.7L187.58,16l-1.1,2.75Z"/><path class="cls-2" d="M191.67,21h-.36l-.28,0,.12-.74a1.52,1.52,0,0,0,.45.07.77.77,0,0,0,.51-.17,1.66,1.66,0,0,0,.37-.5l.29-.53-2.27-4h.95l1.77,3.21,1.71-3.21h.91l-2.58,4.72c-.1.18-.2.34-.3.49a2.12,2.12,0,0,1-.33.39,1.61,1.61,0,0,1-.42.25A1.8,1.8,0,0,1,191.67,21Z"/><path class="cls-2" d="M196.52,15.05h.81v2.58h0L200,15.05h1.13l-2.85,2.68,3,3.18H200.1l-2.75-3h0v3h-.81Z"/><path class="cls-2" d="M204.53,21.06a3.32,3.32,0,0,1-1.23-.23,2.73,2.73,0,0,1-1-.64,3,3,0,0,1-.65-1,3.39,3.39,0,0,1-.23-1.25,3.31,3.31,0,0,1,.23-1.25,2.87,2.87,0,0,1,1.63-1.6,3.32,3.32,0,0,1,1.23-.22,3.39,3.39,0,0,1,1.25.22,2.87,2.87,0,0,1,1.63,1.6,3.13,3.13,0,0,1,.24,1.25,3.2,3.2,0,0,1-.24,1.25,3,3,0,0,1-.65,1,2.73,2.73,0,0,1-1,.64A3.39,3.39,0,0,1,204.53,21.06Zm0-.74a2.25,2.25,0,0,0,.92-.18,2.12,2.12,0,0,0,.71-.5,2.25,2.25,0,0,0,.44-.75,2.7,2.7,0,0,0,0-1.83,2.35,2.35,0,0,0-.44-.75,2.19,2.19,0,0,0-.7-.5,2.15,2.15,0,0,0-.93-.19,2.09,2.09,0,0,0-.91.19,2,2,0,0,0-.69.5,2.58,2.58,0,0,0-.45.75,2.87,2.87,0,0,0,0,1.83,2.46,2.46,0,0,0,.45.75,2,2,0,0,0,.69.5A2.24,2.24,0,0,0,204.53,20.32Z"/><path class="cls-2" d="M208.76,15.05h2a3.11,3.11,0,0,1,.67.07,1.94,1.94,0,0,1,.59.25,1.43,1.43,0,0,1,.42.46,1.34,1.34,0,0,1,.16.7,1.2,1.2,0,0,1-.28.82,1.44,1.44,0,0,1-.75.45v0a1.55,1.55,0,0,1,.53.15,1.33,1.33,0,0,1,.41.29,1.43,1.43,0,0,1,.27.43,1.63,1.63,0,0,1,.09.55,1.45,1.45,0,0,1-.17.74,1.56,1.56,0,0,1-.47.52,2.12,2.12,0,0,1-.7.3,3.37,3.37,0,0,1-.86.11h-1.93Zm1.89,2.47a2,2,0,0,0,.44-.05,1.05,1.05,0,0,0,.37-.17.68.68,0,0,0,.25-.28.86.86,0,0,0,.09-.41.72.72,0,0,0-.35-.67,1.78,1.78,0,0,0-.93-.2h-.94v1.78Zm0,2.69a3.12,3.12,0,0,0,.52,0,1.74,1.74,0,0,0,.47-.16,1,1,0,0,0,.34-.31,1,1,0,0,0,.13-.5.83.83,0,0,0-.36-.75,1.94,1.94,0,0,0-1-.23h-1.1v2Z"/><path class="cls-2" d="M216.87,21.06a3.28,3.28,0,0,1-1.23-.23,2.73,2.73,0,0,1-1-.64,2.81,2.81,0,0,1-.65-1,3.39,3.39,0,0,1-.23-1.25,3.31,3.31,0,0,1,.23-1.25,2.72,2.72,0,0,1,.65-1,2.85,2.85,0,0,1,1-.63,3.28,3.28,0,0,1,1.23-.22,3.42,3.42,0,0,1,1.25.22,3,3,0,0,1,1,.63,2.85,2.85,0,0,1,.65,1A3.13,3.13,0,0,1,220,18a3.2,3.2,0,0,1-.24,1.25,3,3,0,0,1-.65,1,2.82,2.82,0,0,1-1,.64A3.43,3.43,0,0,1,216.87,21.06Zm0-.74a2.25,2.25,0,0,0,.92-.18,2.12,2.12,0,0,0,.71-.5,2.25,2.25,0,0,0,.44-.75,2.7,2.7,0,0,0,0-1.83,2.35,2.35,0,0,0-.44-.75,2.19,2.19,0,0,0-.7-.5,2.15,2.15,0,0,0-.93-.19,2.18,2.18,0,0,0-1.61.69,2.55,2.55,0,0,0-.44.75,2.7,2.7,0,0,0,0,1.83,2.46,2.46,0,0,0,.45.75,2,2,0,0,0,.69.5A2.24,2.24,0,0,0,216.87,20.32Z"/><path class="cls-2" d="M222.68,19.22h-1.92v-.66h1.92Z"/><path class="cls-2" d="M224.24,15.77h-1.88v-.72h4.58v.72h-1.88v5.14h-.82Z"/><path class="cls-2" d="M227.71,15.05h3.76v.72h-2.94v1.75h2.77v.71h-2.77v1.95h3.07v.73h-3.89Z"/><path class="cls-2" d="M234.22,17.8l-1.89-2.75h1l1.41,2.18,1.39-2.18h1l-1.87,2.77,2.13,3.09h-1l-1.6-2.47-1.57,2.47h-1Z"/><path class="cls-2" d="M238.22,15.05H239V17.5h3V15.05h.82v5.86H242V18.23h-3v2.68h-.82Z"/><path class="cls-2" d="M244.25,15.05h.82v5.86h-.82Z"/><path class="cls-2" d="M249.63,18.54a3.84,3.84,0,0,1-.59.13,6.3,6.3,0,0,1-.75,0,2.26,2.26,0,0,1-1.45-.39,1.51,1.51,0,0,1-.46-1.22V15.05h.82V17a1.06,1.06,0,0,0,.27.78,1.25,1.25,0,0,0,.91.27,5.55,5.55,0,0,0,.72-.05,2.21,2.21,0,0,0,.53-.12V15.05h.82v5.86h-.82Z"/><path class="cls-2" d="M251.87,15.05h.82V17.5h3V15.05h.82v5.86h-.82V18.23h-3v2.68h-.82Z"/><path class="cls-2" d="M257.9,15.05h.82v4.64h0l2.95-4.64h.91v5.86h-.82V16.26h0l-2.95,4.65h-.91Z"/><path class="cls-2" d="M264,15.05h.82v4.64h0l2.95-4.64h.9v5.86h-.82V16.26h0l-3,4.65H264Zm2.32-.51a1.31,1.31,0,0,1-.86-.29,1.22,1.22,0,0,1-.41-.82l.47-.09a.72.72,0,0,0,.27.48.93.93,0,0,0,1.07,0,.77.77,0,0,0,.27-.48l.47.09a1.27,1.27,0,0,1-.41.82A1.32,1.32,0,0,1,266.34,14.54Z"/><path class="cls-2" d="M127.81,35.64h-4.48V29.78h.82v5.14h2.93V29.78h.82v5.14h.66V37h-.75Z"/><path class="cls-2" d="M129.52,29.78h3.75v.72h-2.93v1.76h2.76V33h-2.76v2h3.06v.72h-3.88Z"/><path class="cls-2" d="M134.49,29.78h.82v2.45h3V29.78h.82v5.86h-.82V33h-3v2.68h-.82Z"/><path class="cls-2" d="M141.76,30.5h-1.88v-.72h4.57v.72h-1.87v5.14h-.82Z"/><path class="cls-2" d="M145.23,29.78H147a3.83,3.83,0,0,1,.86.1,1.81,1.81,0,0,1,.66.29,1.39,1.39,0,0,1,.42.51,1.64,1.64,0,0,1,.15.73,1.61,1.61,0,0,1-.16.76,1.39,1.39,0,0,1-.45.51,1.94,1.94,0,0,1-.67.29,3.36,3.36,0,0,1-.85.1h-.93v2.57h-.82Zm1.69,2.59a2.39,2.39,0,0,0,.55,0,1.28,1.28,0,0,0,.43-.16.83.83,0,0,0,.29-.3,1,1,0,0,0,.1-.45.83.83,0,0,0-.39-.73,1.54,1.54,0,0,0-.43-.16,2.93,2.93,0,0,0-.53,0h-.89v1.89Z"/><path class="cls-2" d="M153.82,35.79a3,3,0,0,1-1.14-.21,2.27,2.27,0,0,1-.9-.65l.6-.54a1.81,1.81,0,0,0,.56.5,1.79,1.79,0,0,0,1.37.13,1.2,1.2,0,0,0,.42-.22,1,1,0,0,0,.28-.35,1,1,0,0,0,.1-.47.87.87,0,0,0-.46-.81,1.44,1.44,0,0,0-.48-.17,3.43,3.43,0,0,0-.56,0h-.38v-.69h.39a2.87,2.87,0,0,0,.52,0,1.13,1.13,0,0,0,.42-.17.84.84,0,0,0,.28-.31,1,1,0,0,0,.11-.47.87.87,0,0,0-.3-.68,1.27,1.27,0,0,0-.83-.26,1.6,1.6,0,0,0-.75.16,1.38,1.38,0,0,0-.51.41l-.56-.5a2.07,2.07,0,0,1,.7-.54,2.68,2.68,0,0,1,1.11-.21,2.8,2.8,0,0,1,.79.1,1.67,1.67,0,0,1,.61.31,1.46,1.46,0,0,1,.4.49,1.62,1.62,0,0,1,.13.68,1.34,1.34,0,0,1-.29.87,1.46,1.46,0,0,1-.74.47h0a2,2,0,0,1,.48.18,1.5,1.5,0,0,1,.4.3,1.73,1.73,0,0,1,.27.43,1.51,1.51,0,0,1,.1.53,1.62,1.62,0,0,1-.18.77,1.55,1.55,0,0,1-.47.55,2,2,0,0,1-.68.35A3.1,3.1,0,0,1,153.82,35.79Z"/><path class="cls-2" d="M160.29,33.11a1.78,1.78,0,0,1-1-.55,1.52,1.52,0,0,1-.37-1.08,1.81,1.81,0,0,1,.15-.76,1.6,1.6,0,0,1,.44-.53,1.94,1.94,0,0,1,.68-.31,3.94,3.94,0,0,1,.88-.1h1.78v5.86H162V33.2h-.88l-1.44,2.44h-1Zm1.73-.59v-2h-.89a1.88,1.88,0,0,0-1,.24.83.83,0,0,0-.38.77.88.88,0,0,0,.37.78,1.85,1.85,0,0,0,1.05.25Z"/><path class="cls-2" d="M163.68,34.92h.48a3.35,3.35,0,0,0,.71-1.37,8,8,0,0,0,.25-2.22V29.78H169v5.14h.66V37h-.75V35.64h-4.46V37h-.74Zm4.47,0V30.5h-2.24v.89a12,12,0,0,1-.06,1.27,9.63,9.63,0,0,1-.18,1,6.36,6.36,0,0,1-.25.74,4,4,0,0,1-.29.52Z"/><path class="cls-2" d="M170.59,29.78h3.76v.72h-2.94v1.76h2.76V33h-2.76v2h3.06v.72h-3.88Z"/><path class="cls-2" d="M175.56,29.78h1.79a3.83,3.83,0,0,1,.86.1,1.81,1.81,0,0,1,.66.29,1.39,1.39,0,0,1,.42.51,1.64,1.64,0,0,1,.15.73,1.61,1.61,0,0,1-.16.76,1.39,1.39,0,0,1-.45.51,1.94,1.94,0,0,1-.67.29,3.36,3.36,0,0,1-.85.1h-.93v2.57h-.82Zm1.69,2.59a2.39,2.39,0,0,0,.55,0,1.28,1.28,0,0,0,.43-.16.83.83,0,0,0,.29-.3,1,1,0,0,0,.1-.45.83.83,0,0,0-.39-.73,1.54,1.54,0,0,0-.43-.16,2.93,2.93,0,0,0-.53,0h-.89v1.89Z"/><path class="cls-2" d="M180.49,29.78h.81v2.45h3V29.78h.82v5.86h-.82V33h-3v2.68h-.81Z"/><path class="cls-2" d="M189.32,35.79a3.15,3.15,0,0,1-1.24-.23,2.85,2.85,0,0,1-1-.63,3,3,0,0,1-.65-1,3.34,3.34,0,0,1-.23-1.24,3.4,3.4,0,0,1,.23-1.26,2.85,2.85,0,0,1,.65-1,3,3,0,0,1,1-.62,3.33,3.33,0,0,1,1.24-.22,3.37,3.37,0,0,1,1.24.22,3,3,0,0,1,1,.62,2.85,2.85,0,0,1,.65,1,3.22,3.22,0,0,1,.24,1.26,3.15,3.15,0,0,1-.24,1.24,3,3,0,0,1-.65,1,2.85,2.85,0,0,1-1,.63A3.18,3.18,0,0,1,189.32,35.79Zm0-.73a2.09,2.09,0,0,0,.91-.19,2,2,0,0,0,.71-.5,2.16,2.16,0,0,0,.44-.75,2.67,2.67,0,0,0,0-1.82,2.35,2.35,0,0,0-.44-.75,2.38,2.38,0,0,0-.7-.51,2.44,2.44,0,0,0-1.84,0,2.21,2.21,0,0,0-.69.51,2.58,2.58,0,0,0-.45.75,2.84,2.84,0,0,0,0,1.82,2.34,2.34,0,0,0,.45.75,1.87,1.87,0,0,0,.7.5A2.06,2.06,0,0,0,189.32,35.06Z"/><path class="cls-2" d="M192.63,28.65a.49.49,0,0,1,.15-.35.5.5,0,0,1,.37-.15.48.48,0,0,1,.36.14.49.49,0,0,1,.15.36.45.45,0,0,1-.15.35.49.49,0,0,1-.36.15.47.47,0,0,1-.37-.16A.46.46,0,0,1,192.63,28.65Zm.91,1.13h.82v5.86h-.82Zm.7-1.13a.52.52,0,0,1,.14-.35.5.5,0,0,1,.37-.15.5.5,0,0,1,.52.5.45.45,0,0,1-.15.35.5.5,0,0,1-.37.15.47.47,0,0,1-.37-.16A.49.49,0,0,1,194.24,28.65Z"/><path class="cls-2" d="M199.09,30.5h-1.88v-.72h4.58v.72h-1.88v5.14h-.82Z"/><path class="cls-2" d="M203.94,29.78h.74l2.52,5.86h-.93l-.59-1.44H202.9l-.59,1.44h-.91Zm1.44,3.7-1.09-2.74-1.1,2.74Z"/><path class="cls-2" d="M210,29.78h1.79a3.83,3.83,0,0,1,.86.1,1.81,1.81,0,0,1,.66.29,1.39,1.39,0,0,1,.42.51,1.64,1.64,0,0,1,.15.73,1.61,1.61,0,0,1-.16.76,1.39,1.39,0,0,1-.45.51,1.94,1.94,0,0,1-.67.29,3.36,3.36,0,0,1-.85.1h-.93v2.57H210Zm1.69,2.59a2.39,2.39,0,0,0,.55,0,1.28,1.28,0,0,0,.43-.16.83.83,0,0,0,.29-.3,1,1,0,0,0,.09-.45.79.79,0,0,0-.38-.73,1.54,1.54,0,0,0-.43-.16,2.93,2.93,0,0,0-.53,0h-.89v1.89Z"/><path class="cls-2" d="M216.32,29.78h.74l2.52,5.86h-.93l-.59-1.44h-2.78l-.59,1.44h-.91Zm1.44,3.7-1.09-2.74-1.1,2.74Z"/><path class="cls-2" d="M219.74,34.92h.48a3.25,3.25,0,0,0,.72-1.37,8.44,8.44,0,0,0,.24-2.22V29.78H225v5.14h.67V37H225V35.64h-4.46V37h-.75Zm4.47,0V30.5H222v.89a9.71,9.71,0,0,1-.07,1.27,7.66,7.66,0,0,1-.17,1,4.87,4.87,0,0,1-.26.74,3.11,3.11,0,0,1-.29.52Z"/><path class="cls-2" d="M226.65,29.78h.82v5.86h-.82Z"/><path class="cls-2" d="M230.77,29.78h.74L234,35.64h-.93l-.59-1.44h-2.79l-.58,1.44h-.91Zm1.44,3.7-1.09-2.74L230,33.48Z"/><path class="cls-2" d="M239.27,35.64h-4.49V29.78h.82v5.14h2.94V29.78h.82v5.14H240V37h-.74Z"/><path class="cls-2" d="M241,29.78h.82v5.86H241Z"/><path class="cls-2" d="M243.21,29.78H244v4.65h0L247,29.78h.91v5.86h-.82V31h0l-2.95,4.64h-.91Zm2.33-.51a1.28,1.28,0,0,1-.86-.29,1.23,1.23,0,0,1-.42-.81l.48-.09a.73.73,0,0,0,.27.48.91.91,0,0,0,1.06,0,.73.73,0,0,0,.27-.48l.47.09a1.18,1.18,0,0,1-.41.81A1.28,1.28,0,0,1,245.54,29.27Z"/><path class="cls-2" d="M249.33,29.78h.82v2.45h3V29.78h.82v5.86h-.82V33h-3v2.68h-.82Z"/><path class="cls-2" d="M258.16,35.79a3.15,3.15,0,0,1-1.24-.23A2.79,2.79,0,0,1,255.3,34a3.15,3.15,0,0,1-.24-1.24,3.22,3.22,0,0,1,.24-1.26,2.83,2.83,0,0,1,.64-1,3.09,3.09,0,0,1,1-.62,3.6,3.6,0,0,1,2.48,0,3.14,3.14,0,0,1,1,.62,3,3,0,0,1,.65,1,3.4,3.4,0,0,1,.23,1.26A3.34,3.34,0,0,1,261,34a3.16,3.16,0,0,1-.65,1,3,3,0,0,1-1,.63A3.15,3.15,0,0,1,258.16,35.79Zm0-.73a2.13,2.13,0,0,0,.92-.19,2,2,0,0,0,.7-.5,2.34,2.34,0,0,0,.45-.75,2.67,2.67,0,0,0,0-1.82,2.58,2.58,0,0,0-.45-.75,2.15,2.15,0,0,0-.7-.51,2.25,2.25,0,0,0-.92-.18,2.29,2.29,0,0,0-.92.18,2.21,2.21,0,0,0-.69.51,2.35,2.35,0,0,0-.44.75,2.67,2.67,0,0,0,0,1.82,2.16,2.16,0,0,0,.44.75,2.18,2.18,0,0,0,1.61.69Z"/><path class="cls-2" d="M261.48,28.65a.52.52,0,0,1,.14-.35.5.5,0,0,1,.37-.15.49.49,0,0,1,.37.14.48.48,0,0,1,.14.36.45.45,0,0,1-.14.35.5.5,0,0,1-.37.15.47.47,0,0,1-.37-.16A.49.49,0,0,1,261.48,28.65Zm.91,1.13h.82v5.86h-.82Zm.69-1.13a.49.49,0,0,1,.15-.35.5.5,0,0,1,.37-.15.48.48,0,0,1,.36.14.49.49,0,0,1,.15.36A.45.45,0,0,1,264,29a.49.49,0,0,1-.36.15.47.47,0,0,1-.37-.16A.46.46,0,0,1,263.08,28.65Z"/><path class="cls-2" d="M123.33,44.52H127v.7h-2.83V47h1.1a3.25,3.25,0,0,1,.85.1,1.77,1.77,0,0,1,.68.31,1.34,1.34,0,0,1,.44.53,1.86,1.86,0,0,1,0,1.51,1.48,1.48,0,0,1-.43.53,2.06,2.06,0,0,1-.67.31,3.33,3.33,0,0,1-.86.1h-1.93Zm1.83,5.17a1.88,1.88,0,0,0,1-.24.83.83,0,0,0,.37-.76.86.86,0,0,0-.36-.75,1.76,1.76,0,0,0-1-.26h-1v2Z"/><path class="cls-2" d="M128.57,44.52h3.75v.72h-2.94V47h2.77v.7h-2.77v1.95h3.07v.73h-3.88Z"/><path class="cls-2" d="M135.14,50.53a2.94,2.94,0,0,1-1.15-.22,2.16,2.16,0,0,1-.9-.64l.61-.54a1.72,1.72,0,0,0,.56.5,1.65,1.65,0,0,0,.85.2,1.7,1.7,0,0,0,.51-.07,1.2,1.2,0,0,0,.42-.22,1.06,1.06,0,0,0,.39-.82,1,1,0,0,0-.13-.5,1,1,0,0,0-.34-.32,1.29,1.29,0,0,0-.48-.16,3.31,3.31,0,0,0-.55-.05h-.38V47h.39a2.76,2.76,0,0,0,.51,0,1.29,1.29,0,0,0,.43-.17,1,1,0,0,0,.28-.31,1,1,0,0,0,.1-.48.85.85,0,0,0-.3-.67,1.24,1.24,0,0,0-.82-.26,1.75,1.75,0,0,0-.76.15,1.41,1.41,0,0,0-.51.42l-.55-.5a2,2,0,0,1,.7-.54,2.61,2.61,0,0,1,1.11-.22,2.72,2.72,0,0,1,.78.11,1.71,1.71,0,0,1,.62.3,1.36,1.36,0,0,1,.39.5,1.57,1.57,0,0,1,.14.67,1.32,1.32,0,0,1-.3.88,1.34,1.34,0,0,1-.74.46v0a2.22,2.22,0,0,1,.49.18,1.45,1.45,0,0,1,.39.3,1.17,1.17,0,0,1,.27.42,1.33,1.33,0,0,1,.1.54,1.67,1.67,0,0,1-.17.76,1.82,1.82,0,0,1-.47.56,2,2,0,0,1-.69.34A2.63,2.63,0,0,1,135.14,50.53Z"/><path class="cls-2" d="M138.42,44.52H143v5.86h-.82V45.24h-2.94v5.14h-.82Z"/><path class="cls-2" d="M144.42,44.52h3.76v.72h-2.94V47H148v.7h-2.76v1.95h3.06v.73h-3.88Z"/><path class="cls-2" d="M149.39,44.52h.82V47.1h0l2.62-2.58H154l-2.85,2.68,3,3.18H153l-2.75-3h0v3h-.82Z"/><path class="cls-2" d="M154.85,44.52h.82v4.64h0l3-4.64h.9v5.86h-.82V45.74h0l-2.95,4.64h-.9Z"/></g></g></svg>